<svg width="26" height="23" viewBox="0 0 26 23" fill="none" xmlns="http://www.w3.org/2000/svg">
<path d="M22.0009 5.56445H3.73924C2.2264 5.56445 1 6.79085 1 8.3037V19.2607C1 20.7735 2.2264 21.9999 3.73924 21.9999H22.0009C23.5137 21.9999 24.7401 20.7735 24.7401 19.2607V8.3037C24.7401 6.79085 23.5137 5.56445 22.0009 5.56445Z" stroke="#616161" stroke-linejoin="round"/>
<path d="M21.7361 5.56449V3.85246C21.7359 3.43256 21.6431 3.01787 21.4643 2.63797C21.2854 2.25806 21.0249 1.92232 20.7014 1.65469C20.3778 1.38706 19.9992 1.19413 19.5925 1.08969C19.1858 0.985237 18.761 0.971837 18.3485 1.05044L3.31923 3.61563C2.66656 3.74001 2.07775 4.08825 1.65436 4.6003C1.23098 5.11234 0.99955 5.75609 1 6.4205V9.21681" stroke="#616161" stroke-linejoin="round"/>
<path d="M19.2616 15.6086C18.9004 15.6086 18.5473 15.5015 18.247 15.3009C17.9467 15.1002 17.7127 14.815 17.5744 14.4813C17.4362 14.1476 17.4001 13.7804 17.4705 13.4262C17.541 13.072 17.7149 12.7466 17.9703 12.4912C18.2257 12.2358 18.5511 12.0619 18.9053 11.9914C19.2596 11.9209 19.6267 11.9571 19.9604 12.0953C20.2941 12.2335 20.5793 12.4676 20.78 12.7679C20.9806 13.0682 21.0878 13.4213 21.0878 13.7825C21.0878 14.2668 20.8954 14.7313 20.5529 15.0738C20.2104 15.4162 19.7459 15.6086 19.2616 15.6086Z" fill="#616161"/>
</svg>
