<svg width="18" height="19" viewBox="0 0 18 19" fill="none" xmlns="http://www.w3.org/2000/svg">
<path fill-rule="evenodd" clip-rule="evenodd" d="M1.39567 12.5291C-0.852334 7.0121 3.20667 0.975098 9.16367 0.975098H9.48467C10.5442 0.975098 11.5933 1.18378 12.5722 1.58924C13.551 1.99469 14.4404 2.58898 15.1896 3.33816C15.9388 4.08734 16.5331 4.97675 16.9385 5.95561C17.344 6.93446 17.5527 7.98359 17.5527 9.0431C17.5527 11.4253 16.6063 13.7099 14.9219 15.3943C13.2374 17.0788 10.9528 18.0251 8.57067 18.0251H0.750666C0.595286 18.0252 0.4437 17.9771 0.316852 17.8874C0.190005 17.7976 0.0941605 17.6707 0.0425619 17.5242C-0.00903667 17.3776 -0.0138415 17.2186 0.0288116 17.0692C0.0714646 16.9198 0.15947 16.7873 0.280666 16.6901L2.25167 15.1071C2.29381 15.0733 2.32389 15.0268 2.33741 14.9746C2.35093 14.9223 2.34716 14.8671 2.32667 14.8171L1.39567 12.5291ZM9.16367 2.4751C4.27067 2.4751 0.937666 7.4321 2.78367 11.9631L3.71567 14.2521C3.85767 14.601 3.88328 14.9865 3.78869 15.3511C3.6941 15.7158 3.48437 16.0402 3.19067 16.2761L2.88167 16.5251H8.57067C10.555 16.5251 12.4581 15.7368 13.8612 14.3337C15.2644 12.9305 16.0527 11.0274 16.0527 9.0431C16.0527 7.30116 15.3607 5.63056 14.1289 4.39882C12.8972 3.16708 11.2266 2.4751 9.48467 2.4751H9.16367Z" fill="#616161"/>
</svg>
