<svg width="21" height="21" viewBox="0 0 21 21" fill="none" xmlns="http://www.w3.org/2000/svg">
<path d="M4.65385 10.5005V6.6568C4.66526 5.90127 4.82565 5.15541 5.12583 4.46197C5.42601 3.76853 5.86008 3.14113 6.40316 2.61573C6.94624 2.09032 7.58766 1.67724 8.29067 1.40014C8.99368 1.12304 9.74447 0.987378 10.5 1.00092C11.2555 0.987378 12.0063 1.12304 12.7093 1.40014C13.4123 1.67724 14.0538 2.09032 14.5968 2.61573C15.1399 3.14113 15.574 3.76853 15.8742 4.46197C16.1743 5.15541 16.3347 5.90127 16.3462 6.6568V10.5005M13.4231 18.1732C14.1983 18.1732 14.9418 17.8652 15.49 17.3171C16.0382 16.7689 16.3462 16.0254 16.3462 15.2502V11.9619M13.4231 18.1732C13.4231 18.6577 13.2306 19.1223 12.888 19.4649C12.5454 19.8075 12.0807 20 11.5962 20H9.40385C8.91932 20 8.45463 19.8075 8.11202 19.4649C7.7694 19.1223 7.57692 18.6577 7.57692 18.1732C7.57692 17.6887 7.7694 17.224 8.11202 16.8814C8.45463 16.5388 8.91932 16.3463 9.40385 16.3463H11.5962C12.0807 16.3463 12.5454 16.5388 12.888 16.8814C13.2306 17.224 13.4231 17.6887 13.4231 18.1732ZM2.46154 8.30826H3.92308C4.11689 8.30826 4.30276 8.38525 4.43981 8.52229C4.57685 8.65933 4.65385 8.84519 4.65385 9.03899V13.4234C4.65385 13.6172 4.57685 13.8031 4.43981 13.9401C4.30276 14.0771 4.11689 14.1541 3.92308 14.1541H2.46154C2.07391 14.1541 1.70217 14.0002 1.42807 13.7261C1.15398 13.452 1 13.0803 1 12.6927V9.76973C1 9.38212 1.15398 9.01039 1.42807 8.73631C1.70217 8.46224 2.07391 8.30826 2.46154 8.30826ZM18.5385 14.1541H17.0769C16.8831 14.1541 16.6972 14.0771 16.5602 13.9401C16.4231 13.8031 16.3462 13.6172 16.3462 13.4234V9.03899C16.3462 8.84519 16.4231 8.65933 16.5602 8.52229C16.6972 8.38525 16.8831 8.30826 17.0769 8.30826H18.5385C18.9261 8.30826 19.2978 8.46224 19.5719 8.73631C19.846 9.01039 20 9.38212 20 9.76973V12.6927C20 13.0803 19.846 13.452 19.5719 13.7261C19.2978 14.0002 18.9261 14.1541 18.5385 14.1541Z" stroke="#616161" stroke-linecap="round" stroke-linejoin="round"/>
</svg>
