<svg width="20" height="21" viewBox="0 0 20 21" fill="none" xmlns="http://www.w3.org/2000/svg">
<path fill-rule="evenodd" clip-rule="evenodd" d="M10.563 1.7H9.437L8.792 4.278L8.145 4.478C7.76798 4.59417 7.40271 4.74551 7.054 4.93L6.455 5.247L4.175 3.879L3.379 4.676L4.747 6.956L4.43 7.554C4.24516 7.90268 4.0935 8.26795 3.977 8.645L3.778 9.292L1.2 9.937V11.063L3.778 11.708L3.978 12.355C4.09333 12.7337 4.244 13.0973 4.43 13.446L4.747 14.045L3.379 16.325L4.176 17.121L6.456 15.753L7.054 16.07C7.40267 16.2553 7.76633 16.4063 8.145 16.523L8.792 16.722L9.437 19.3H10.563L11.208 16.722L11.855 16.522C12.232 16.4058 12.5973 16.2545 12.946 16.07L13.545 15.753L15.825 17.121L16.621 16.324L15.253 14.044L15.57 13.446C15.7553 13.0973 15.9063 12.7337 16.023 12.355L16.222 11.708L18.8 11.063V9.937L16.222 9.292L16.022 8.645C15.9058 8.26798 15.7545 7.90271 15.57 7.554L15.253 6.955L16.621 4.675L15.824 3.879L13.544 5.247L12.946 4.93C12.5973 4.74516 12.2321 4.5935 11.855 4.477L11.208 4.278L10.563 1.7ZM13.508 3.87L15.341 2.77C15.5321 2.65536 15.7561 2.60786 15.9773 2.63504C16.1985 2.66221 16.4043 2.76251 16.562 2.92L17.58 3.938C17.7375 4.0957 17.8378 4.30149 17.865 4.52271C17.8921 4.74392 17.8446 4.96787 17.73 5.159L16.63 6.992C16.85 7.40533 17.03 7.83867 17.17 8.292L19.243 8.811C19.4592 8.86517 19.6512 8.99005 19.7883 9.16579C19.9255 9.34154 20 9.55807 20 9.781V11.219C20 11.4419 19.9255 11.6585 19.7883 11.8342C19.6512 12.01 19.4592 12.1348 19.243 12.189L17.17 12.708C17.03 13.1613 16.85 13.5947 16.63 14.008L17.73 15.841C17.8446 16.0321 17.8921 16.2561 17.865 16.4773C17.8378 16.6985 17.7375 16.9043 17.58 17.062L16.562 18.08C16.4043 18.2375 16.1985 18.3378 15.9773 18.365C15.7561 18.3921 15.5321 18.3446 15.341 18.23L13.508 17.13C13.0947 17.35 12.6613 17.53 12.208 17.67L11.689 19.743C11.6348 19.9592 11.51 20.1512 11.3342 20.2883C11.1585 20.4255 10.9419 20.5 10.719 20.5H9.281C9.05807 20.5 8.84154 20.4255 8.66579 20.2883C8.49005 20.1512 8.36517 19.9592 8.311 19.743L7.792 17.67C7.3427 17.5312 6.90744 17.3504 6.492 17.13L4.659 18.23C4.46787 18.3446 4.24392 18.3921 4.02271 18.365C3.80149 18.3378 3.5957 18.2375 3.438 18.08L2.42 17.062C2.26251 16.9043 2.16221 16.6985 2.13504 16.4773C2.10786 16.2561 2.15536 16.0321 2.27 15.841L3.37 14.008C3.14964 13.5926 2.96885 13.1573 2.83 12.708L0.757 12.189C0.540919 12.1349 0.349098 12.0101 0.211963 11.8346C0.074827 11.6591 0.000228643 11.4428 0 11.22V9.782C5.86043e-06 9.55907 0.0745022 9.34254 0.211655 9.16679C0.348809 8.99105 0.540753 8.86617 0.757 8.812L2.83 8.293C2.97 7.83967 3.15 7.40633 3.37 6.993L2.27 5.16C2.15536 4.96887 2.10786 4.74492 2.13504 4.52371C2.16221 4.30249 2.26251 4.0967 2.42 3.939L3.438 2.92C3.5957 2.76251 3.80149 2.66221 4.02271 2.63504C4.24392 2.60786 4.46787 2.65536 4.659 2.77L6.492 3.87C6.90533 3.65 7.33867 3.47 7.792 3.33L8.311 1.257C8.36513 1.04092 8.48986 0.849098 8.6654 0.711963C8.84094 0.574827 9.05724 0.500229 9.28 0.5H10.718C10.9409 0.500006 11.1575 0.574502 11.3332 0.711655C11.509 0.848809 11.6338 1.04075 11.688 1.257L12.207 3.33C12.6603 3.47 13.0937 3.65 13.507 3.87H13.508ZM10 13.3C10.7426 13.3 11.4548 13.005 11.9799 12.4799C12.505 11.9548 12.8 11.2426 12.8 10.5C12.8 9.75739 12.505 9.0452 11.9799 8.5201C11.4548 7.995 10.7426 7.7 10 7.7C9.25739 7.7 8.5452 7.995 8.0201 8.5201C7.495 9.0452 7.2 9.75739 7.2 10.5C7.2 11.2426 7.495 11.9548 8.0201 12.4799C8.5452 13.005 9.25739 13.3 10 13.3ZM10 14.5C8.93913 14.5 7.92172 14.0786 7.17157 13.3284C6.42143 12.5783 6 11.5609 6 10.5C6 9.43913 6.42143 8.42172 7.17157 7.67157C7.92172 6.92143 8.93913 6.5 10 6.5C11.0609 6.5 12.0783 6.92143 12.8284 7.67157C13.5786 8.42172 14 9.43913 14 10.5C14 11.5609 13.5786 12.5783 12.8284 13.3284C12.0783 14.0786 11.0609 14.5 10 14.5Z" fill="#616161"/>
</svg>
