<svg width="32" height="32" viewBox="0 0 32 32" fill="none" xmlns="http://www.w3.org/2000/svg">
<path d="M15.9453 0.504639C16.0442 0.504639 16.1404 0.533806 16.2217 0.587646L16.2979 0.650146L31.293 15.6453C31.3618 15.7155 31.4092 15.8046 31.4277 15.9011C31.4463 15.9976 31.4353 16.0976 31.3975 16.1882C31.3596 16.2787 31.2963 16.3563 31.2148 16.4109C31.1332 16.4655 31.0367 16.4954 30.9385 16.4958H30.9375C30.8719 16.4962 30.8068 16.4835 30.7461 16.4587C30.6852 16.4339 30.6288 16.3967 30.582 16.3503L16.2939 2.05151L15.9404 1.698L15.5869 2.05151L1.31836 16.3298C1.2236 16.4084 1.10365 16.4498 0.980469 16.4451C0.854756 16.4401 0.735462 16.3885 0.646484 16.2996C0.557525 16.2106 0.504949 16.0913 0.5 15.9656C0.49524 15.8424 0.536619 15.7215 0.615234 15.6267L15.5928 0.650146C15.6864 0.557054 15.8133 0.504677 15.9453 0.504639Z" fill="black" stroke="#8517B2"/>
<path d="M26.9404 18.1692V29.9954C26.9404 30.2606 26.835 30.5149 26.6475 30.7024C26.4599 30.8899 26.2056 30.9954 25.9404 30.9954H19.9404V20.9954H11.9404V30.9954H5.94043C5.67521 30.9954 5.42093 30.8899 5.2334 30.7024C5.04588 30.5149 4.94043 30.2606 4.94043 29.9954V18.2385L15.9424 7.19946L26.9404 18.1692Z" stroke="#8517B2" stroke-width="2"/>
</svg>
