<svg width="20" height="19" viewBox="0 0 20 19" fill="none" xmlns="http://www.w3.org/2000/svg">
<path d="M10.1 15.875L10 15.975L9.89 15.875C5.14 11.565 2 8.71495 2 5.82495C2 3.82495 3.5 2.32495 5.5 2.32495C7.04 2.32495 8.54 3.32495 9.07 4.68495H10.93C11.46 3.32495 12.96 2.32495 14.5 2.32495C16.5 2.32495 18 3.82495 18 5.82495C18 8.71495 14.86 11.565 10.1 15.875ZM14.5 0.324951C12.76 0.324951 11.09 1.13495 10 2.40495C8.91 1.13495 7.24 0.324951 5.5 0.324951C2.42 0.324951 0 2.73495 0 5.82495C0 9.59495 3.4 12.685 8.55 17.355L10 18.675L11.45 17.355C16.6 12.685 20 9.59495 20 5.82495C20 2.73495 17.58 0.324951 14.5 0.324951Z" fill="#616161"/>
</svg>
