<svg width="33" height="32" viewBox="0 0 33 32" fill="none" xmlns="http://www.w3.org/2000/svg">
<path d="M16.9363 32C8.09953 32 0.936325 24.8368 0.936325 16C0.936325 7.1632 8.09953 0 16.9363 0C25.7731 0 32.9363 7.1632 32.9363 16C32.9363 24.8368 25.7731 32 16.9363 32ZM16.9363 28.8C20.3311 28.8 23.5868 27.4514 25.9873 25.051C28.3878 22.6505 29.7363 19.3948 29.7363 16C29.7363 12.6052 28.3878 9.3495 25.9873 6.94903C23.5868 4.54857 20.3311 3.2 16.9363 3.2C13.5416 3.2 10.2858 4.54857 7.88536 6.94903C5.48489 9.3495 4.13633 12.6052 4.13633 16C4.13633 19.3948 5.48489 22.6505 7.88536 25.051C10.2858 27.4514 13.5416 28.8 16.9363 28.8ZM8.93633 15.2L23.3363 9.6L17.7363 24.0032L15.3363 17.6L8.93633 15.2Z" fill="#B9B9B9"/>
</svg>
