<svg width="20" height="14" viewBox="0 0 20 14" fill="none" xmlns="http://www.w3.org/2000/svg">
<path d="M19 0H1C0.734784 0 0.48043 0.105357 0.292893 0.292893C0.105357 0.48043 0 0.734784 0 1V5H0.893C1.889 5 2.813 5.681 2.973 6.664C3.02192 6.95106 3.00757 7.24535 2.93094 7.52628C2.85431 7.80722 2.71726 8.06804 2.52936 8.29051C2.34147 8.51297 2.10725 8.69173 1.84309 8.81428C1.57893 8.93682 1.2912 9.00021 1 9H0V13C0 13.2652 0.105357 13.5196 0.292893 13.7071C0.48043 13.8946 0.734784 14 1 14H19C19.2652 14 19.5196 13.8946 19.7071 13.7071C19.8946 13.5196 20 13.2652 20 13V9H19C18.7088 9.00021 18.4211 8.93682 18.1569 8.81428C17.8927 8.69173 17.6585 8.51297 17.4706 8.29051C17.2827 8.06804 17.1457 7.80722 17.0691 7.52628C16.9924 7.24535 16.9781 6.95106 17.027 6.664C17.187 5.681 18.111 5 19.107 5H20V1C20 0.734784 19.8946 0.48043 19.7071 0.292893C19.5196 0.105357 19.2652 0 19 0ZM7 4C7.26522 4 7.51957 4.10536 7.70711 4.29289C7.89464 4.48043 8 4.73478 8 5C8 5.26522 7.89464 5.51957 7.70711 5.70711C7.51957 5.89464 7.26522 6 7 6C6.73478 6 6.48043 5.89464 6.29289 5.70711C6.10536 5.51957 6 5.26522 6 5C6 4.73478 6.10536 4.48043 6.29289 4.29289C6.48043 4.10536 6.73478 4 7 4ZM6.2 10.4L12.2 2.4L13.8 3.6L7.8 11.6L6.2 10.4ZM13 10C12.7348 10 12.4804 9.89464 12.2929 9.70711C12.1054 9.51957 12 9.26522 12 9C12 8.73478 12.1054 8.48043 12.2929 8.29289C12.4804 8.10536 12.7348 8 13 8C13.2652 8 13.5196 8.10536 13.7071 8.29289C13.8946 8.48043 14 8.73478 14 9C14 9.26522 13.8946 9.51957 13.7071 9.70711C13.5196 9.89464 13.2652 10 13 10Z" fill="black"/>
</svg>
