<svg width="22" height="22" viewBox="0 0 22 22" fill="none" xmlns="http://www.w3.org/2000/svg">
<path fill-rule="evenodd" clip-rule="evenodd" d="M10.5427 2.058C10.1487 2.572 9.70472 3.366 9.05872 4.524L8.73172 5.111L8.67272 5.217C8.37272 5.757 8.11772 6.215 7.70872 6.525C7.29572 6.839 6.79172 6.952 6.20572 7.084L6.09172 7.11L5.45572 7.254C4.20072 7.538 3.34572 7.733 2.76172 7.964C2.19072 8.188 2.07072 8.373 2.02472 8.52C1.97572 8.676 1.97472 8.915 2.31472 9.457C2.66172 10.007 3.24672 10.693 4.10072 11.693L4.53472 12.2L4.60972 12.287C5.01272 12.757 5.34872 13.149 5.50272 13.645C5.65572 14.138 5.60472 14.655 5.54272 15.283L5.53272 15.4L5.46672 16.077C5.33672 17.409 5.25072 18.327 5.27972 18.987C5.30972 19.647 5.44872 19.829 5.55972 19.913C5.65772 19.988 5.83972 20.07 6.43272 19.9C7.03572 19.728 7.83772 19.361 9.01272 18.82L9.60872 18.546L9.71772 18.496C10.2627 18.243 10.7347 18.025 11.2507 18.025C11.7667 18.025 12.2387 18.243 12.7837 18.495C12.8191 18.5123 12.8557 18.529 12.8937 18.545L13.4887 18.82C14.6637 19.361 15.4657 19.728 16.0687 19.9C16.6617 20.07 16.8437 19.988 16.9417 19.913C17.0527 19.829 17.1917 19.646 17.2217 18.987C17.2517 18.327 17.1637 17.409 17.0347 16.077L16.9687 15.4L16.9587 15.283C16.8967 14.655 16.8457 14.138 16.9987 13.645C17.1527 13.149 17.4887 12.757 17.8917 12.287L17.9667 12.2L18.4007 11.693C19.2547 10.693 19.8397 10.007 20.1857 9.457C20.5267 8.915 20.5257 8.677 20.4767 8.52C20.4307 8.373 20.3107 8.188 19.7397 7.964C19.1547 7.733 18.3007 7.538 17.0457 7.254L16.4097 7.11L16.2957 7.084C15.7097 6.952 15.2057 6.839 14.7927 6.525C14.3827 6.215 14.1297 5.758 13.8287 5.217L13.7707 5.111L13.4427 4.524C12.7967 3.366 12.3527 2.572 11.9587 2.058C11.5647 1.544 11.3647 1.5 11.2507 1.5C11.1367 1.5 10.9357 1.544 10.5427 2.058ZM9.35272 1.146C9.82772 0.524 10.4167 0 11.2507 0C12.0847 0 12.6727 0.524 13.1497 1.146C13.6177 1.758 14.1147 2.649 14.7217 3.738L15.0807 4.381C15.4727 5.085 15.5737 5.235 15.6997 5.331C15.8197 5.422 15.9767 5.474 16.7397 5.647L17.4397 5.805C18.6157 6.071 19.5847 6.29 20.2897 6.568C21.0217 6.857 21.6627 7.282 21.9097 8.075C22.1537 8.86 21.8797 9.582 21.4557 10.255C21.0437 10.91 20.3857 11.68 19.5817 12.62L19.1067 13.175C18.5897 13.779 18.4817 13.927 18.4307 14.09C18.3797 14.257 18.3837 14.45 18.4627 15.255L18.5337 15.993C18.6557 17.249 18.7547 18.273 18.7197 19.053C18.6847 19.848 18.5047 20.61 17.8497 21.108C17.1817 21.614 16.4047 21.558 15.6547 21.342C14.9277 21.134 14.0217 20.717 12.9217 20.21L12.2657 19.908C11.5477 19.578 11.3947 19.525 11.2507 19.525C11.1067 19.525 10.9537 19.578 10.2357 19.908L9.58072 20.21C8.47972 20.717 7.57372 21.134 6.84672 21.342C6.09672 21.557 5.31972 21.614 4.65272 21.108C3.99672 20.61 3.81672 19.848 3.78172 19.054C3.74672 18.274 3.84572 17.249 3.96772 15.994L4.03972 15.255C4.11772 14.449 4.12172 14.257 4.06972 14.09C4.01972 13.927 3.91172 13.78 3.39472 13.175L2.91972 12.62C2.11672 11.68 1.45872 10.91 1.04672 10.256C0.621721 9.582 0.347721 8.86 0.591721 8.075C0.838721 7.282 1.47972 6.857 2.21172 6.568C2.91672 6.29 3.88572 6.071 5.06172 5.805L5.12472 5.791L5.76072 5.647C6.52472 5.474 6.68072 5.422 6.80172 5.33C6.92772 5.235 7.02872 5.085 7.42172 4.381L7.77972 3.738C8.38672 2.648 8.88372 1.758 9.35172 1.146" fill="black"/>
</svg>
