<svg width="33" height="32" viewBox="0 0 33 32" fill="none" xmlns="http://www.w3.org/2000/svg">
<path d="M9.82501 18.7773H24.0477C26.1399 18.7774 28.1464 19.6095 29.6258 21.0889C31.1051 22.5683 31.9363 24.5749 31.9363 26.667C31.9363 27.8161 31.4794 28.9179 30.6668 29.7305C29.8542 30.543 28.7525 30.9999 27.6033 31H6.26935C5.12019 30.9999 4.01845 30.543 3.20587 29.7305C2.39329 28.9179 1.93643 27.8161 1.93634 26.667C1.93634 24.5749 2.7676 22.5683 4.24689 21.0889C5.72629 19.6095 7.73283 18.7774 9.82501 18.7773ZM16.9363 1C18.5571 1 20.1116 1.64398 21.2576 2.79004C22.4036 3.93608 23.0477 5.49061 23.0477 7.11133C23.0476 8.73202 22.4036 10.2866 21.2576 11.4326C20.1116 12.5786 18.5571 13.2227 16.9363 13.2227C15.3156 13.2227 13.7611 12.5786 12.6151 11.4326C11.469 10.2866 10.8251 8.73202 10.825 7.11133C10.825 5.49061 11.4691 3.93608 12.6151 2.79004C13.7611 1.64398 15.3156 1 16.9363 1Z" stroke="#B9B9B9" stroke-width="2"/>
</svg>
