<svg width="18" height="23" viewBox="0 0 18 23" fill="none" xmlns="http://www.w3.org/2000/svg">
<path d="M8.35714 16.9137H9.64286V9.64441H8.35714V16.9137ZM9 7.61652C9.22457 7.61652 9.41271 7.54065 9.56443 7.38891C9.71529 7.23717 9.79071 7.04942 9.79071 6.82567C9.79071 6.60107 9.71486 6.41289 9.56314 6.26115C9.41143 6.10942 9.22371 6.03397 9 6.03483C8.77629 6.03569 8.58857 6.11156 8.43686 6.26244C8.28514 6.41332 8.20929 6.60149 8.20929 6.82696C8.20929 7.05242 8.28514 7.24017 8.43686 7.39019C8.58857 7.54022 8.77629 7.61566 9 7.61652ZM9 22.9987C6.41657 22.2314 4.27071 20.6665 2.56243 18.3038C0.854143 15.9411 0 13.2789 0 10.317V3.36269L9 0L18 3.36269V10.317C18 13.278 17.1459 15.9399 15.4376 18.3025C13.7293 20.6652 11.5834 22.2297 9 22.9987ZM9 21.6343C11.2286 20.9271 13.0714 19.5126 14.5286 17.3908C15.9857 15.269 16.7143 12.9115 16.7143 10.3182V4.24097L9 1.37336L1.28571 4.24097V10.317C1.28571 12.9102 2.01429 15.2678 3.47143 17.3895C4.92857 19.5113 6.77143 20.9271 9 21.6343Z" fill="#616161"/>
</svg>
